<svg xmlns="http://www.w3.org/2000/svg" viewBox="0 0 233.44 247.5"><defs><style>.cls-1{fill:#210000;}</style></defs><g id="Layer_4" data-name="Layer 4"><g id="_logo5" data-name=" logo5"><polygon class="cls-1" points="38.11 190.71 80.78 143.72 80.78 190.71 102.08 190.7 179.26 112.11 106.94 112.11 140.35 120.72 102.08 158.36 102.08 112.18 80.96 112.11 38.11 159.11 38.11 138.88 80.78 92.75 102.08 105.27 102.08 45.74 16.63 133.39 16.63 190.71 38.11 190.71"/><path class="cls-1" d="M106.94,190.7H207v-17H147.58l14.64-14.24H207V143.38H176.17l14.52-14.86c.14-.14,16.34,0,16.34,0V112.11h-21Z"/><path class="cls-1" d="M106.94,45.74v59.53H207Zm14.8,25.54L157,92H121.74Z"/></g></g></svg>