<svg xmlns="http://www.w3.org/2000/svg" viewBox="0 0 233.44 247.5"  fill='#fff'><defs><style>.cls-1{fill:#fff;}</style></defs><g id="Layer_4" data-name="Layer 4"><g id="_logo5" data-name=" logo5"><polygon class="cls-1" points="41.58 188.41 84.24 141.42 84.24 188.41 105.55 188.41 182.72 109.81 110.41 109.81 143.82 118.42 105.55 156.06 105.55 109.88 84.43 109.81 41.58 156.81 41.58 136.59 84.24 90.45 105.55 102.97 105.55 43.44 20.1 131.09 20.1 188.41 41.58 188.41"/><path class="cls-1" d="M110.41,188.41H210.49v-17H151.05l14.64-14.23h44.8v-16H179.64l14.52-14.87c.14-.14,16.33,0,16.33,0V109.81h-21Z"/><path class="cls-1" d="M110.41,43.44V103H210.49ZM125.21,69l35.24,20.75H125.21Z"/></g></g></svg>