<svg xmlns="http://www.w3.org/2000/svg" xmlns:xlink="http://www.w3.org/1999/xlink"><defs>
<filter id="filter0_ii_8_31" x="-3" y="-1" width="34.9988" height="52" filterUnits="userSpaceOnUse" color-interpolation-filters="sRGB">
<feFlood flood-opacity="0" result="BackgroundImageFix"/>
<feBlend mode="normal" in="SourceGraphic" in2="BackgroundImageFix" result="shape"/>
<feColorMatrix in="SourceAlpha" type="matrix" values="0 0 0 0 0 0 0 0 0 0 0 0 0 0 0 0 0 0 127 0" result="hardAlpha"/>
<feOffset dx="-3" dy="-1"/>
<feGaussianBlur stdDeviation="2"/>
<feComposite in2="hardAlpha" operator="arithmetic" k2="-1" k3="1"/>
<feColorMatrix type="matrix" values="0 0 0 0 0 0 0 0 0 0 0 0 0 0 0 0 0 0 0.12 0"/>
<feBlend mode="normal" in2="shape" result="effect1_innerShadow_8_31"/>
<feColorMatrix in="SourceAlpha" type="matrix" values="0 0 0 0 0 0 0 0 0 0 0 0 0 0 0 0 0 0 127 0" result="hardAlpha"/>
<feOffset dx="5" dy="1"/>
<feGaussianBlur stdDeviation="2"/>
<feComposite in2="hardAlpha" operator="arithmetic" k2="-1" k3="1"/>
<feColorMatrix type="matrix" values="0 0 0 0 1 0 0 0 0 1 0 0 0 0 1 0 0 0 0.21 0"/>
<feBlend mode="normal" in2="effect1_innerShadow_8_31" result="effect2_innerShadow_8_31"/>
</filter>

<filter id="filter0_i_8_38" x="0" y="-3.8147e-06" width="31.9988" height="51" filterUnits="userSpaceOnUse" color-interpolation-filters="sRGB">
<feFlood flood-opacity="0" result="BackgroundImageFix"/>
<feBlend mode="normal" in="SourceGraphic" in2="BackgroundImageFix" result="shape"/>
<feColorMatrix in="SourceAlpha" type="matrix" values="0 0 0 0 0 0 0 0 0 0 0 0 0 0 0 0 0 0 127 0" result="hardAlpha"/>
<feOffset dx="5" dy="1"/>
<feGaussianBlur stdDeviation="2"/>
<feComposite in2="hardAlpha" operator="arithmetic" k2="-1" k3="1"/>
<feColorMatrix type="matrix" values="0 0 0 0 0 0 0 0 0 0 0 0 0 0 0 0 0 0 0.21 0"/>
<feBlend mode="normal" in2="shape" result="effect1_innerShadow_8_38"/>
</filter>
<style>.cls-1{fill:#210000;}</style><style>.cls-1{fill:#fff;}</style><style>.cls-1{fill:#272835;}</style></defs><symbol id="aprove" viewBox="0 0 24 24"><g color="#fff" fill="none" stroke="#fff" stroke-linecap="square" stroke-linejoin="miter" stroke-width="1"><title id="circleOkIconTitle"/><polyline points="7 13 10 16 17 9"/><circle cx="12" cy="12" r="10"/></g></symbol><symbol id="arrowMoreActive" viewBox="0 0 28 50"><g fill="none">
<g filter="url(#filter0_ii_8_31)">
<path d="M3 3C10.4449 10.2205 25.2671 24.7292 24.9963 25C24.7256 25.2708 10.2193 39.7795 3 47" stroke="#FF8208" stroke-width="6" stroke-linecap="round" stroke-linejoin="round"/>
</g>

</g></symbol><symbol id="arrowMoreDefault" viewBox="0 0 28 50"><g fill="none">
<g filter="url(#filter0_i_8_38)">
<path d="M3 3C10.4449 10.2205 25.2671 24.7292 24.9963 25C24.7256 25.2708 10.2193 39.7795 3 47" stroke="#FF8208" stroke-width="6" stroke-linecap="round" stroke-linejoin="round"/>
</g>

</g></symbol><symbol id="arrowMoreSimple" viewBox="0 0 53 24"><g fill="#FEB701">
<path d="M52.0544 13.0607C52.6402 12.4749 52.6402 11.5251 52.0544 10.9393L42.5085 1.3934C41.9227 0.807611 40.973 0.807611 40.3872 1.3934C39.8014 1.97919 39.8014 2.92893 40.3872 3.51472L48.8725 12L40.3872 20.4853C39.8014 21.0711 39.8014 22.0208 40.3872 22.6066C40.973 23.1924 41.9227 23.1924 42.5085 22.6066L52.0544 13.0607ZM0.993774 13.5H50.9938V10.5H0.993774V13.5Z" fill="#FF710B"/>
</g></symbol><symbol id="close copy" viewBox="0 0 24 24"><g fill="none">
<path d="M4.34313 19.6569L12 12M19.6568 4.34314L12 12M12 12L4.34313 4.34315M12 12L19.6568 19.6569" stroke="#2288DD" stroke-width="2" stroke-linecap="round" stroke-linejoin="round"/>
</g></symbol><symbol id="close" viewBox="0 0 24 24"><g fill="none">
<path d="M4.34313 19.6569L12 12M19.6568 4.34314L12 12M12 12L4.34313 4.34315M12 12L19.6568 19.6569" stroke="#2288DD" stroke-width="2" stroke-linecap="round" stroke-linejoin="round"/>
</g></symbol><symbol id="logo" viewBox="0 0 233.44 247.5"><g id="Layer_4" data-name="Layer 4"><g id="_logo5" data-name="&#xa0;logo5"><polygon class="cls-1" points="38.11 190.71 80.78 143.72 80.78 190.71 102.08 190.7 179.26 112.11 106.94 112.11 140.35 120.72 102.08 158.36 102.08 112.18 80.96 112.11 38.11 159.11 38.11 138.88 80.78 92.75 102.08 105.27 102.08 45.74 16.63 133.39 16.63 190.71 38.11 190.71"/><path class="cls-1" d="M106.94,190.7H207v-17H147.58l14.64-14.24H207V143.38H176.17l14.52-14.86c.14-.14,16.34,0,16.34,0V112.11h-21Z"/><path class="cls-1" d="M106.94,45.74v59.53H207Zm14.8,25.54L157,92H121.74Z"/></g></g></symbol><symbol id="logoWhite" viewBox="0 0 233.44 247.5"><g fill="#fff"><g id="Layer_4" data-name="Layer 4"><g id="_logo5" data-name="&#xa0;logo5"><polygon class="cls-1" points="41.58 188.41 84.24 141.42 84.24 188.41 105.55 188.41 182.72 109.81 110.41 109.81 143.82 118.42 105.55 156.06 105.55 109.88 84.43 109.81 41.58 156.81 41.58 136.59 84.24 90.45 105.55 102.97 105.55 43.44 20.1 131.09 20.1 188.41 41.58 188.41"/><path class="cls-1" d="M110.41,188.41H210.49v-17H151.05l14.64-14.23h44.8v-16H179.64l14.52-14.87c.14-.14,16.33,0,16.33,0V109.81h-21Z"/><path class="cls-1" d="M110.41,43.44V103H210.49ZM125.21,69l35.24,20.75H125.21Z"/></g></g></g></symbol><symbol id="profile" viewBox="0 0 64 64"><title>6-Profile</title><g id="_6-Profile" data-name="6-Profile"><path class="cls-1" d="M32,0A32,32,0,1,0,64,32,32,32,0,0,0,32,0Zm0,62a29.88,29.88,0,0,1-20.37-8H52.37A29.88,29.88,0,0,1,32,62ZM29.82,21h4.36A3.55,3.55,0,0,0,37,22.91V24c0,2.77-1.31,6-5,6s-5-3.23-5-6V22.91A3.55,3.55,0,0,0,29.82,21ZM27,20.86V16.47A8.31,8.31,0,0,1,32,15a8.31,8.31,0,0,1,5,1.47v4.39c-.5-.13-1-.38-1-.86a1,1,0,0,0-1-1H29a1,1,0,0,0-1,1C28,20.47,27.5,20.72,27,20.86Zm7.84,11.89L32,35.59l-2.84-2.84.38-1.19a7,7,0,0,0,4.9,0ZM31,37.41V41h2V37.41l3.25-3.25,6,2.61L43,38.24V52H40V47H38v5H26V47H24v5H21V38.24l.73-1.46,6-2.61ZM54.34,52H45V38a1,1,0,0,0-.11-.45l-1-2a1,1,0,0,0-.5-.47l-6.63-2.87-.54-1.67A8.2,8.2,0,0,0,39,24V16a1,1,0,0,0-.29-.71A9.73,9.73,0,0,0,32,13a9.73,9.73,0,0,0-6.71,2.29A1,1,0,0,0,25,16v8a8.2,8.2,0,0,0,2.77,6.54l-.54,1.67L20.6,35.08a1,1,0,0,0-.5.47l-1,2A1,1,0,0,0,19,38V52H9.66a30,30,0,1,1,44.67,0Z"/><path class="cls-1" d="M57,31A25,25,0,0,0,7,31H9a23,23,0,0,1,46,0Z"/><rect class="cls-1" x="7" y="33" width="2" height="2"/><rect class="cls-1" x="55" y="33" width="2" height="2"/></g></symbol><symbol id="rouble" viewBox="-1 0 24 24"><path d="m17.778 7.449c.002-.043.003-.093.003-.143 0-1.028-.425-1.956-1.11-2.618l-.001-.001c-.717-.658-1.678-1.061-2.732-1.061-.064 0-.128.002-.191.004h.009-5.454v7.636h5.454c.054.003.118.004.182.004 1.054 0 2.015-.403 2.735-1.064l-.003.003c.685-.663 1.111-1.591 1.111-2.619 0-.05-.001-.1-.003-.149v.007zm4.04 0c.003.076.005.164.005.253 0 2.006-.829 3.819-2.163 5.115l-.002.002c-1.371 1.292-3.224 2.086-5.262 2.086-.107 0-.213-.002-.319-.006h.015-5.795v2.011h8.608.021c.29 0 .525.235.525.525v.022-.001 2.182.021c0 .29-.235.525-.525.525-.007 0-.015 0-.022 0h.001-8.608v3.273.018c0 .147-.061.28-.16.374-.097.095-.23.154-.377.154-.002 0-.004 0-.007 0h-2.846c-.006 0-.014 0-.021 0-.29 0-.525-.235-.525-.525 0-.007 0-.015 0-.022v.001-3.273h-3.818c-.006 0-.014 0-.021 0-.29 0-.525-.235-.525-.525 0-.007 0-.015 0-.022v.001-2.182c0-.006 0-.014 0-.021 0-.29.235-.525.525-.525h.022-.001 3.818v-2.011h-3.818c-.006 0-.014 0-.021 0-.29 0-.525-.235-.525-.525 0-.007 0-.015 0-.022v.001-2.54c0-.002 0-.004 0-.006 0-.147.059-.28.154-.377.094-.099.227-.16.374-.16h.019-.001 3.818v-10.72c0-.006 0-.014 0-.021 0-.29.235-.525.525-.525h.022-.001 9.187c.091-.004.197-.006.304-.006 2.038 0 3.891.794 5.266 2.09l-.004-.004c1.334 1.297 2.162 3.109 2.162 5.114 0 .088-.002.176-.005.264v-.013z"/></symbol><symbol id="step1" viewBox="0 0 419 511.68"><g shape-rendering="geometricPrecision" text-rendering="geometricPrecision" image-rendering="optimizeQuality" fill-rule="evenodd" clip-rule="evenodd"><path d="M314.98 303.63c57.47 0 104.02 46.58 104.02 104.02 0 57.47-46.58 104.03-104.02 104.03-57.47 0-104.03-46.58-104.03-104.03 0-57.47 46.59-104.02 104.03-104.02zM93 39.4h46.13C141.83 17.18 159.77 0 181.52 0c21.62 0 39.45 16.95 42.34 38.94l46.76.46c2.61 0 4.7 2.1 4.7 4.71v51.85c0 2.6-2.09 4.7-4.7 4.7H93.05c-2.56 0-4.71-2.1-4.71-4.7V44.11C88.3 41.5 90.4 39.4 93 39.4zM41.72 59.28h23.94v24.38H41.72c-4.76 0-9.11 1.95-12.24 5.09-3.14 3.13-5.1 7.48-5.1 12.24v315.53c0 4.76 1.96 9.1 5.1 12.24 3.12 3.16 7.47 5.12 12.24 5.12h142.62c1.68 8.44 4.18 16.6 7.37 24.38H41.72c-11.4 0-21.85-4.72-29.44-12.3C4.72 438.44 0 428 0 416.52V100.99c0-11.48 4.7-21.92 12.25-29.47 7.55-7.55 18-12.24 29.47-12.24zm297.56 217.36V100.99c0-4.52-1.76-8.67-4.61-11.75l-.51-.48c-3.15-3.14-7.48-5.1-12.24-5.1h-23.91V59.28h23.91c11.48 0 21.92 4.71 29.46 12.26l.72.78c7.15 7.51 11.56 17.64 11.56 28.67V283.6c-7.8-3.06-15.95-5.41-24.38-6.96zm-206.75-8.06c-7.13 0-12.92-5.79-12.92-12.93 0-7.13 5.79-12.92 12.92-12.92h142.82c7.14 0 12.93 5.79 12.93 12.92 0 7.14-5.79 12.93-12.93 12.93H132.53zM89.5 241.22c7.98 0 14.43 6.46 14.43 14.44 0 7.98-6.45 14.44-14.43 14.44-7.98 0-14.44-6.46-14.44-14.44 0-7.98 6.46-14.44 14.44-14.44zm0 78.62c7.98 0 14.43 6.47 14.43 14.44s-6.45 14.44-14.43 14.44c-7.98 0-14.44-6.47-14.44-14.44s6.46-14.44 14.44-14.44zm43.04 27.36c-7.13 0-12.93-5.79-12.93-12.93 0-7.13 5.8-12.92 12.93-12.92h80.96a133.654 133.654 0 0 0-17.27 25.85h-63.69zM89.5 162.61c7.98 0 14.43 6.46 14.43 14.44 0 7.98-6.45 14.44-14.43 14.44-7.98 0-14.44-6.46-14.44-14.44 0-7.98 6.46-14.44 14.44-14.44zm43.03 27.36c-7.13 0-12.92-5.8-12.92-12.93s5.79-12.93 12.92-12.93h142.82c7.14 0 12.93 5.8 12.93 12.93s-5.79 12.93-12.93 12.93H132.53zm48.5-169.81c12.3 0 22.26 9.97 22.26 22.27 0 12.29-9.96 22.26-22.26 22.26s-22.27-9.97-22.27-22.26c0-12.3 9.97-22.27 22.27-22.27zm103.62 367.48 19.48 18.45 38.62-39.2c3.6-3.67 5.85-6.59 10.31-2.03l14.42 14.76c4.73 4.67 4.48 7.4.02 11.78l-55.16 54.19c-9.39 9.23-7.77 9.81-17.3.32l-34.68-34.48c-1.96-2.15-1.75-4.33.39-6.5l16.73-17.32c2.54-2.64 4.56-2.47 7.17.03z"/></g></symbol><symbol id="step2" viewBox="0 0 419 511.68"><g shape-rendering="geometricPrecision" text-rendering="geometricPrecision" image-rendering="optimizeQuality" fill-rule="evenodd" clip-rule="evenodd"><path d="M93 39.4h46.12C141.84 17.18 159.77 0 181.52 0c21.62 0 39.45 16.95 42.34 38.94l46.76.46c2.6 0 4.7 2.1 4.7 4.71v51.85c0 2.6-2.1 4.69-4.7 4.69H93.05c-2.56 0-4.71-2.09-4.71-4.69V44.11A4.644 4.644 0 0 1 93 39.4zm221.98 264.23c57.47 0 104.02 46.58 104.02 104.02 0 57.47-46.58 104.03-104.02 104.03-57.48 0-104.02-46.59-104.02-104.03 0-57.48 46.58-104.02 104.02-104.02zm-8.43 151.98 8.62-43.82 8.75 13.18c18.82-7.56 29.39-20.02 30.96-39.2 15.46 27.04 6.07 51.27-13.51 65.47l8.91 13.43-43.73-9.06zm16.85-95.93-8.62 43.81-8.75-13.17c-18.83 7.56-29.39 20.02-30.96 39.2-15.46-27.03-6.06-51.26 13.52-65.47l-8.92-13.43 43.73 9.06zM41.73 59.28h23.93v24.38H41.73c-4.77 0-9.12 1.96-12.25 5.09-3.14 3.14-5.1 7.48-5.1 12.24v315.53c0 4.77 1.95 9.13 5.08 12.27 3.15 3.12 7.5 5.09 12.27 5.09h142.61c1.69 8.43 4.18 16.6 7.37 24.38H41.73c-11.41 0-21.86-4.71-29.42-12.27C4.72 438.38 0 427.96 0 416.52V100.99c0-11.48 4.7-21.91 12.25-29.46 7.55-7.55 17.99-12.25 29.48-12.25zm297.55 217.36V100.99c0-4.76-1.97-9.11-5.09-12.26-3.15-3.12-7.49-5.07-12.27-5.07h-23.91V59.28h23.91c11.44 0 21.85 4.71 29.42 12.25 7.6 7.61 12.31 18.05 12.31 29.46V283.6c-7.78-3.06-15.94-5.41-24.37-6.96zm-206.75-8.06c-7.13 0-12.92-5.8-12.92-12.93s5.79-12.92 12.92-12.92h142.82c7.13 0 12.93 5.79 12.93 12.92s-5.8 12.93-12.93 12.93H132.53zM89.5 241.21c7.97 0 14.44 6.47 14.44 14.44 0 7.98-6.47 14.45-14.44 14.45s-14.44-6.47-14.44-14.45c0-7.97 6.47-14.44 14.44-14.44zm0 78.63c7.97 0 14.44 6.46 14.44 14.43 0 7.98-6.47 14.45-14.44 14.45s-14.44-6.47-14.44-14.45c0-7.97 6.47-14.43 14.44-14.43zm43.04 27.36c-7.13 0-12.93-5.8-12.93-12.93s5.8-12.92 12.93-12.92h80.96a133.608 133.608 0 0 0-17.26 25.85h-63.7zM89.5 162.61c7.97 0 14.44 6.46 14.44 14.44 0 7.97-6.47 14.43-14.44 14.43s-14.44-6.46-14.44-14.43c0-7.98 6.47-14.44 14.44-14.44zm43.03 27.35c-7.13 0-12.92-5.79-12.92-12.92s5.79-12.93 12.92-12.93h142.82c7.13 0 12.93 5.8 12.93 12.93s-5.8 12.92-12.93 12.92H132.53zm48.5-169.8c12.3 0 22.26 9.97 22.26 22.27 0 12.29-9.96 22.25-22.26 22.25-12.29 0-22.26-9.96-22.26-22.25 0-12.3 9.97-22.27 22.26-22.27z"/></g></symbol><symbol id="telegram" viewBox="0 0 50 50"><g fill="white"><path d="M 44.376953 5.9863281 C 43.889905 6.0076957 43.415817 6.1432497 42.988281 6.3144531 C 42.565113 6.4845113 40.128883 7.5243408 36.53125 9.0625 C 32.933617 10.600659 28.256963 12.603668 23.621094 14.589844 C 14.349356 18.562196 5.2382813 22.470703 5.2382812 22.470703 L 5.3046875 22.445312 C 5.3046875 22.445312 4.7547875 22.629122 4.1972656 23.017578 C 3.9185047 23.211806 3.6186028 23.462555 3.3730469 23.828125 C 3.127491 24.193695 2.9479735 24.711788 3.015625 25.259766 C 3.2532479 27.184511 5.2480469 27.730469 5.2480469 27.730469 L 5.2558594 27.734375 L 14.158203 30.78125 C 14.385177 31.538434 16.858319 39.792923 17.402344 41.541016 C 17.702797 42.507484 17.984013 43.064995 18.277344 43.445312 C 18.424133 43.635633 18.577962 43.782915 18.748047 43.890625 C 18.815627 43.933415 18.8867 43.965525 18.957031 43.994141 C 18.958531 43.994806 18.959437 43.99348 18.960938 43.994141 C 18.969579 43.997952 18.977708 43.998295 18.986328 44.001953 L 18.962891 43.996094 C 18.979231 44.002694 18.995359 44.013801 19.011719 44.019531 C 19.043456 44.030655 19.062905 44.030268 19.103516 44.039062 C 20.123059 44.395042 20.966797 43.734375 20.966797 43.734375 L 21.001953 43.707031 L 26.470703 38.634766 L 35.345703 45.554688 L 35.457031 45.605469 C 37.010484 46.295216 38.415349 45.910403 39.193359 45.277344 C 39.97137 44.644284 40.277344 43.828125 40.277344 43.828125 L 40.310547 43.742188 L 46.832031 9.7519531 C 46.998903 8.9915162 47.022612 8.334202 46.865234 7.7402344 C 46.707857 7.1462668 46.325492 6.6299361 45.845703 6.34375 C 45.365914 6.0575639 44.864001 5.9649605 44.376953 5.9863281 z M 44.429688 8.0195312 C 44.627491 8.0103707 44.774102 8.032983 44.820312 8.0605469 C 44.866523 8.0881109 44.887272 8.0844829 44.931641 8.2519531 C 44.976011 8.419423 45.000036 8.7721605 44.878906 9.3242188 L 44.875 9.3359375 L 38.390625 43.128906 C 38.375275 43.162926 38.240151 43.475531 37.931641 43.726562 C 37.616914 43.982653 37.266874 44.182554 36.337891 43.792969 L 26.632812 36.224609 L 26.359375 36.009766 L 26.353516 36.015625 L 23.451172 33.837891 L 39.761719 14.648438 A 1.0001 1.0001 0 0 0 38.974609 13 A 1.0001 1.0001 0 0 0 38.445312 13.167969 L 14.84375 28.902344 L 5.9277344 25.849609 C 5.9277344 25.849609 5.0423771 25.356927 5 25.013672 C 4.99765 24.994652 4.9871961 25.011869 5.0332031 24.943359 C 5.0792101 24.874869 5.1948546 24.759225 5.3398438 24.658203 C 5.6298218 24.456159 5.9609375 24.333984 5.9609375 24.333984 L 5.9941406 24.322266 L 6.0273438 24.308594 C 6.0273438 24.308594 15.138894 20.399882 24.410156 16.427734 C 29.045787 14.44166 33.721617 12.440122 37.318359 10.902344 C 40.914175 9.3649615 43.512419 8.2583658 43.732422 8.1699219 C 43.982886 8.0696253 44.231884 8.0286918 44.429688 8.0195312 z M 33.613281 18.792969 L 21.244141 33.345703 L 21.238281 33.351562 A 1.0001 1.0001 0 0 0 21.183594 33.423828 A 1.0001 1.0001 0 0 0 21.128906 33.507812 A 1.0001 1.0001 0 0 0 20.998047 33.892578 A 1.0001 1.0001 0 0 0 20.998047 33.900391 L 19.386719 41.146484 C 19.35993 41.068197 19.341173 41.039555 19.3125 40.947266 L 19.3125 40.945312 C 18.800713 39.30085 16.467362 31.5161 16.144531 30.439453 L 33.613281 18.792969 z M 22.640625 35.730469 L 24.863281 37.398438 L 21.597656 40.425781 L 22.640625 35.730469 z"/></g></symbol><symbol id="vk" viewBox="0 0 48 48"><g fill="white"><path d="M45.763,35.202c-1.797-3.234-6.426-7.12-8.337-8.811c-0.523-0.463-0.579-1.264-0.103-1.776 c3.647-3.919,6.564-8.422,7.568-11.143C45.334,12.27,44.417,11,43.125,11l-3.753,0c-1.237,0-1.961,0.444-2.306,1.151 c-3.031,6.211-5.631,8.899-7.451,10.47c-1.019,0.88-2.608,0.151-2.608-1.188c0-2.58,0-5.915,0-8.28 c0-1.147-0.938-2.075-2.095-2.075L18.056,11c-0.863,0-1.356,0.977-0.838,1.662l1.132,1.625c0.426,0.563,0.656,1.248,0.656,1.951 L19,23.556c0,1.273-1.543,1.895-2.459,1.003c-3.099-3.018-5.788-9.181-6.756-12.128C9.505,11.578,8.706,11.002,7.8,11l-3.697-0.009 c-1.387,0-2.401,1.315-2.024,2.639c3.378,11.857,10.309,23.137,22.661,24.36c1.217,0.12,2.267-0.86,2.267-2.073l0-3.846 c0-1.103,0.865-2.051,1.977-2.079c0.039-0.001,0.078-0.001,0.117-0.001c3.267,0,6.926,4.755,8.206,6.979 c0.368,0.64,1.056,1.03,1.8,1.03l4.973,0C45.531,38,46.462,36.461,45.763,35.202z"/></g></symbol></svg>